# xmcd CD database file
#
# Track frame offsets:
#	150
#	16655
#	37040
#
# Disc length: 712 seconds
#
# Revision: 0
# Processed by: cddbd v1.5PL3 Copyright (c) Steve Scherf et al.
# Submitted via: CDex 1.51
#
DISCID=1802c603
DTITLE=中川亜紀子 - 夢の都 TOKYO LIFE
DYEAR=2002
DGENRE=Anime
TTITLE0=夢の都 TOKYO LIFE
TTITLE1=DEAR
TTITLE2=夢の都 TOKYO LIFE　（オリジナルカラオケ）
EXTD=YEAR: 2002/05/22
EXTT0=
EXTT1=
EXTT2=
PLAYORDER=
